HIERARCHY
ROOT Hips
{
	OFFSET 0.00000 0.00000 0.00000
	CHANNELS 6 Xposition Yposition Zposition Zrotation Yrotation Xrotation 
	JOINT LHipJoint
	{
		OFFSET 0 0 0
		CHANNELS 3 Zrotation Yrotation Xrotation
		JOINT LeftUpLeg
		{
			OFFSET 1.37959 -1.78713 0.86582
			CHANNELS 3 Zrotation Yrotation Xrotation
			JOINT LeftLeg
			{
				OFFSET 2.54611 -6.99539 0.00000
				CHANNELS 3 Zrotation Yrotation Xrotation
				JOINT LeftFoot
				{
					OFFSET 2.59951 -7.14211 0.00000
					CHANNELS 3 Zrotation Yrotation Xrotation
					JOINT LeftToeBase
					{
						OFFSET 0.18493 -0.50810 1.96120
						CHANNELS 3 Zrotation Yrotation Xrotation
						End Site
						{
							OFFSET 0.00000 -0.00000 1.02054
						}
					}
				}
			}
		}
	}
	JOINT RHipJoint
	{
		OFFSET 0 0 0
		CHANNELS 3 Zrotation Yrotation Xrotation
		JOINT RightUpLeg
		{
			OFFSET -1.33564 -1.78713 0.86582
			CHANNELS 3 Zrotation Yrotation Xrotation
			JOINT RightLeg
			{
				OFFSET -2.52705 -6.94302 0.00000
				CHANNELS 3 Zrotation Yrotation Xrotation
				JOINT RightFoot
				{
					OFFSET -2.55964 -7.03257 0.00000
					CHANNELS 3 Zrotation Yrotation Xrotation
					JOINT RightToeBase
					{
						OFFSET -0.25804 -0.70896 2.12109
						CHANNELS 3 Zrotation Yrotation Xrotation
						End Site
						{
							OFFSET -0.00000 -0.00000 1.11821
						}
					}
				}
			}
		}
	}
	JOINT LowerBack
	{
		OFFSET 0 0 0
		CHANNELS 3 Zrotation Yrotation Xrotation
		JOINT Spine
		{
			OFFSET -0.02031 2.24248 -0.18900
			CHANNELS 3 Zrotation Yrotation Xrotation
			JOINT Spine1
			{
				OFFSET 0.08342 2.24689 -0.03799
				CHANNELS 3 Zrotation Yrotation Xrotation
				JOINT Neck
				{
					OFFSET 0 0 0
					CHANNELS 3 Zrotation Yrotation Xrotation
					JOINT Neck1
					{
						OFFSET -0.11607 1.55844 0.24628
						CHANNELS 3 Zrotation Yrotation Xrotation
						JOINT Head
						{
							OFFSET 0.06877 1.60174 -0.17013
							CHANNELS 3 Zrotation Yrotation Xrotation
							End Site
							{
								OFFSET 0.03358 1.61266 -0.08543
							}
						}
					}
				}
				JOINT LeftShoulder
				{
					OFFSET 0 0 0
					CHANNELS 3 Zrotation Yrotation Xrotation
					JOINT LeftArm
					{
						OFFSET 3.47537 0.55866 -0.72348
						CHANNELS 3 Zrotation Yrotation Xrotation
						JOINT LeftForeArm
						{
							OFFSET 5.38154 -0.00000 0.00000
							CHANNELS 3 Zrotation Yrotation Xrotation
							JOINT LeftHand
							{
								OFFSET 3.33312 -0.00000 0.00000
								CHANNELS 3 Zrotation Yrotation Xrotation
								JOINT LeftFingerBase
								{
									OFFSET 0 0 0
									CHANNELS 3 Zrotation Yrotation Xrotation
									JOINT LeftHandIndex1
									{
										OFFSET 0.71079 -0.00000 0.00000
										CHANNELS 3 Zrotation Yrotation Xrotation
										End Site
										{
											OFFSET 0.57306 -0.00000 0.00000
										}
									}
								}
								JOINT LThumb
								{
									OFFSET 0 0 0
									CHANNELS 3 Zrotation Yrotation Xrotation
									End Site
									{
										OFFSET 0.58181 -0.00000 0.58181
									}
								}
							}
						}
					}
				}
				JOINT RightShoulder
				{
					OFFSET 0 0 0
					CHANNELS 3 Zrotation Yrotation Xrotation
					JOINT RightArm
					{
						OFFSET -3.27844 0.90739 -0.35708
						CHANNELS 3 Zrotation Yrotation Xrotation
						JOINT RightForeArm
						{
							OFFSET -5.16954 -0.00000 0.00000
							CHANNELS 3 Zrotation Yrotation Xrotation
							JOINT RightHand
							{
								OFFSET -3.38287 -0.00000 0.00000
								CHANNELS 3 Zrotation Yrotation Xrotation
								JOINT RightFingerBase
								{
									OFFSET 0 0 0
									CHANNELS 3 Zrotation Yrotation Xrotation
									JOINT RightHandIndex1
									{
										OFFSET -0.81797 -0.00000 0.00000
										CHANNELS 3 Zrotation Yrotation Xrotation
										End Site
										{
											OFFSET -0.65947 -0.00000 0.00000
										}
									}
								}
								JOINT RThumb
								{
									OFFSET 0 0 0
									CHANNELS 3 Zrotation Yrotation Xrotation
									End Site
									{
										OFFSET -0.66953 -0.00000 0.66953
									}
								}
							}
						}
					}
				}
			}
		}
	}
}
MOTION
Frames: 15
Frame Time: .0083333
15.1809 16.6207 3.4017 -23.3259 -75.0171 -326.1830 0.0000 0.0000 0.0000 -5.2473 1.1790 -36.2450 12.9879 18.7778 69.0880 1.0123 -11.5639 -18.5379 0.8818 -5.9862 -16.7443 0.0000 0.0000 0.0000 9.9662 0.1627 -28.5533 -5.0788 -13.4720 41.1620 -1.0858 10.4926 -18.9273 -1.9562 8.7743 -25.0918 -1.3614 0.1489 20.9939 1.8623 -0.3705 6.9504 2.8711 -0.3738 -4.1603 -14.1465 -16.8197 -3.5475 17.9451 -24.3863 11.1688 5.3093 -11.5360 8.0307 -0.0000 0.0000 0.0000 -77.5976 7.8182 -7.5022 16.7284 -26.4984 -3.9654 -0.0000 -0.0000 6.1512 6.8712 32.4318 3.6976 -7.1250 0.0000 -0.0000 -29.1322 60.1673 -11.3479 -0.0000 0.0000 0.0000 37.8616 4.0968 -80.0127 -18.6804 29.0196 -4.8748 0.0000 -0.0000 -46.7346 -93.7486 8.8616 66.9592 7.1250 -0.0000 -0.0000 47.9753 -29.0865 30.2455
15.1331 16.6366 3.4893 -21.4905 -75.1258 -328.0970 0.0000 0.0000 0.0000 -4.8266 0.8654 -36.4506 12.8831 18.7395 68.7620 1.1770 -8.9660 -19.4705 0.6275 -5.0688 -14.1048 0.0000 0.0000 0.0000 9.2522 -0.2863 -27.8944 -4.9679 -13.3475 40.6838 -1.0824 10.3774 -18.8817 -1.7754 8.3816 -23.8792 -1.7270 0.0457 21.2935 1.6958 -0.6021 7.0967 2.9607 -0.4943 -4.1397 -14.1920 -16.7267 -4.1395 17.6473 -24.2541 11.8476 5.1869 -11.4264 8.2975 -0.0000 -0.0000 0.0000 -77.7725 7.6174 -7.2921 16.6439 -26.3859 -3.9278 -0.0000 -0.0000 6.6274 6.9631 32.1189 3.7153 -7.1250 0.0000 -0.0000 -28.7504 59.9185 -11.0115 -0.0000 -0.0000 0.0000 37.7967 4.0075 -80.0325 -18.2633 28.4930 -4.6742 0.0000 -0.0000 -45.9678 -93.7946 8.5057 65.8476 7.1250 -0.0000 -0.0000 49.5743 -31.2539 27.6481
15.0841 16.6585 3.5700 -20.8124 -75.1257 -328.7890 0.0000 0.0000 0.0000 -3.9844 0.7388 -36.8776 12.7633 18.6950 68.3887 1.2683 -6.6640 -20.1300 0.3160 -3.6134 -9.9916 0.0000 0.0000 0.0000 8.9000 -0.2957 -27.1422 -4.8275 -13.1869 40.0722 -1.1099 10.0657 -19.0565 -1.4589 7.6339 -21.6076 -2.1287 0.0848 21.6594 1.8552 -0.6360 7.1222 3.3784 -0.5157 -4.2886 -14.8821 -16.8343 -5.1398 17.2687 -24.4519 13.4503 5.0079 -11.4388 9.0775 -0.0000 0.0000 0.0000 -78.2338 7.3462 -7.0680 16.4881 -26.1779 -3.8588 -0.0000 -0.0000 7.4571 7.5805 31.9232 4.0253 -7.1250 0.0000 -0.0000 -27.9490 59.8918 -10.6563 -0.0000 0.0000 0.0000 37.3782 3.6471 -80.3688 -17.9002 28.0291 -4.5022 0.0000 -0.0000 -44.9973 -94.0943 8.6551 64.5615 7.1250 -0.0000 -0.0000 51.7761 -33.7190 24.5025
15.0436 16.6704 3.6368 -22.8531 -74.9426 -326.6750 0.0000 0.0000 0.0000 -2.2812 0.9244 -37.6740 12.6381 18.6475 67.9975 1.3167 -4.7371 -20.6499 0.1658 -2.6232 -7.2315 0.0000 0.0000 0.0000 9.3454 0.3838 -26.4742 -4.6747 -13.0078 39.3978 -1.1417 9.4637 -19.2359 -1.2391 7.0587 -19.8893 -1.8883 0.1487 21.8998 2.1040 -0.4987 7.1246 3.4808 -0.4507 -4.4177 -14.6170 -16.5472 -4.4963 17.2420 -23.8282 11.8761 5.1627 -11.2344 8.2929 0.0000 -0.0000 0.0000 -78.5280 7.0248 -6.9950 16.3757 -26.0274 -3.8093 -0.0000 -0.0000 8.5703 7.7439 31.2983 4.0409 -7.1250 0.0000 -0.0000 -27.2327 59.3824 -10.0221 0.0000 -0.0000 0.0000 37.0275 3.3818 -81.0365 -17.6712 27.7341 -4.3951 0.0000 -0.0000 -44.2992 -94.8868 9.5879 62.8280 7.1250 -0.0000 -0.0000 54.1996 -35.8871 21.5552
15.0130 16.6742 3.7064 -26.1366 -74.5611 -323.3730 0.0000 0.0000 0.0000 -0.2430 1.1651 -38.4232 12.4535 18.5759 67.4193 1.3505 -2.7928 -21.2312 0.1058 -2.0978 -5.7761 0.0000 0.0000 0.0000 10.2405 0.9322 -25.9248 -4.5293 -12.8333 38.7477 -1.1680 8.8178 -19.3849 -1.2410 7.0639 -19.9047 -1.0963 0.1184 22.1286 2.2994 -0.3737 7.1712 3.2105 -0.3925 -4.4969 -13.7685 -16.0517 -5.0663 16.4083 -22.8118 10.9620 4.9518 -10.7677 7.7084 0.0000 -0.0000 0.0000 -78.5445 6.7450 -6.5543 16.3005 -25.9264 -3.7764 -0.0000 -0.0000 9.1658 7.4318 30.7046 3.8106 -7.1250 0.0000 -0.0000 -27.0429 58.7898 -9.5563 0.0000 -0.0000 0.0000 37.0175 3.0953 -80.8988 -17.6022 27.6449 -4.3631 0.0000 -0.0000 -44.5371 -96.4417 9.9852 56.9300 7.1250 -0.0000 -0.0000 60.0050 -40.2927 13.3847
14.9776 16.6799 3.7896 -26.7239 -74.4239 -322.7400 0.0000 0.0000 0.0000 0.7691 1.1863 -38.9709 12.1847 18.4676 66.5731 1.3773 -0.4564 -22.0558 0.1419 -2.4275 -6.6888 0.0000 0.0000 0.0000 10.2916 0.9593 -25.3922 -4.3957 -12.6692 38.1424 -1.1957 8.4360 -19.5815 -1.3936 7.4685 -21.1109 -0.7485 0.0407 22.3987 2.1599 -0.4108 7.1568 2.8753 -0.4071 -4.6513 -13.4402 -15.7128 -5.0999 16.1420 -22.2894 10.8033 4.9209 -10.5274 7.5081 0.0000 -0.0000 0.0000 -78.2740 6.6972 -5.5651 16.3063 -25.9342 -3.7789 -0.0000 -0.0000 9.2002 7.1546 30.5171 3.6471 -7.1250 0.0000 -0.0000 -27.1651 58.5634 -9.4537 0.0000 -0.0000 0.0000 37.3483 2.5090 -80.3214 -17.5391 27.5630 -4.3338 0.0000 -0.0000 -44.5278 -98.0968 10.0698 50.8666 7.1250 -0.0000 -0.0000 67.1006 -43.9146 3.8489
14.9314 16.6904 3.8714 -25.6599 -74.5721 -323.6300 0.0000 0.0000 0.0000 1.1241 1.1568 -39.5200 11.8539 18.3282 65.5250 1.3944 1.5329 -22.9144 0.1838 -2.7614 -7.6152 0.0000 0.0000 0.0000 9.7442 0.9914 -24.9302 -4.2696 -12.5108 37.5637 -1.2249 8.0998 -19.7983 -1.5767 7.9223 -22.4782 -1.0372 0.0345 22.4378 1.9238 -0.4966 7.2076 2.8075 -0.4490 -4.6115 -13.6277 -15.7098 -5.2460 16.1956 -22.3768 11.4938 4.9240 -10.5411 7.7998 0.0000 0.0000 0.0000 -78.1542 6.5936 -5.0187 16.4065 -26.0688 -3.8229 -0.0000 -0.0000 9.5463 6.3597 30.4422 3.2322 -7.1250 0.0000 -0.0000 -27.8963 58.3233 -9.5703 0.0000 0.0000 0.0000 37.7841 1.9682 -79.6531 -17.6283 27.6785 -4.3752 0.0000 -0.0000 -44.3615 -99.2820 9.9414 46.5693 7.1250 -0.0000 -0.0000 72.7922 -45.8422 -3.5879
14.8857 16.6992 3.9426 -26.3675 -74.4831 -322.7750 0.0000 0.0000 0.0000 2.1377 1.1159 -40.0767 11.4819 18.1629 64.3369 1.3646 3.0693 -23.3604 0.1678 -2.6392 -7.2758 0.0000 0.0000 0.0000 9.8182 1.1948 -24.4992 -4.1357 -12.3388 36.9414 -1.2318 7.7002 -19.8391 -1.6153 8.0139 -22.7565 -1.2008 0.1004 22.3661 2.0882 -0.4485 7.3524 3.0633 -0.4363 -4.4175 -14.4291 -15.9642 -5.6735 16.3606 -22.8988 13.0205 4.9284 -10.7293 8.5793 0.0000 0.0000 0.0000 -78.5032 6.2565 -4.8908 16.4586 -26.1385 -3.8458 -0.0000 -0.0000 10.1911 5.8126 30.1834 2.9299 -7.1250 0.0000 -0.0000 -28.2258 57.9785 -9.4566 0.0000 0.0000 0.0000 37.8648 1.5063 -78.8650 -17.8286 27.9371 -4.4687 0.0000 -0.0000 -44.5540 -100.2617 9.6031 42.6595 7.1250 -0.0000 -0.0000 78.0033 -47.0371 -10.3811
14.8445 16.7003 4.0181 -27.7527 -74.1684 -321.2850 0.0000 0.0000 0.0000 3.4685 0.9816 -40.6379 11.0864 17.9771 63.0620 1.2356 4.4935 -23.0566 0.2268 -3.0655 -8.4613 0.0000 0.0000 0.0000 10.2269 1.1389 -24.0937 -3.9873 -12.1435 36.2415 -1.2149 7.3416 -19.6941 -1.6379 8.0672 -22.9182 -0.7188 0.1264 22.2443 2.1397 -0.3245 7.5214 2.8068 -0.3828 -4.1826 -14.9328 -15.8988 -6.1771 16.7606 -22.8648 13.5137 5.0820 -10.6640 8.9462 -0.0000 -0.0000 0.0000 -78.3903 5.7597 -4.2132 16.4382 -26.1112 -3.8368 -0.0000 -0.0000 10.5404 6.0579 29.7930 3.0184 -7.1250 0.0000 -0.0000 -27.6677 57.6893 -9.0532 -0.0000 -0.0000 0.0000 38.1198 0.8458 -78.7340 -17.8887 28.0144 -4.4968 0.0000 -0.0000 -44.5095 -101.3312 9.4816 39.4224 7.1250 -0.0000 -0.0000 83.5731 -47.7266 -17.3530
14.8016 16.7072 4.1057 -27.5252 -73.9813 -321.4230 0.0000 0.0000 0.0000 4.2271 0.6900 -41.1155 10.6691 17.7693 61.7022 1.1701 4.9682 -22.7859 0.2021 -2.8945 -7.9852 0.0000 0.0000 0.0000 10.1902 0.7467 -23.6361 -3.8360 -11.9389 35.5161 -1.2102 6.7307 -19.6539 -1.9385 8.7368 -24.9753 -0.2208 0.0448 22.0425 1.7604 -0.3651 7.7808 2.1168 -0.4039 -3.8040 -15.0195 -15.7830 -6.4514 17.2843 -22.8163 13.7268 5.2500 -10.5925 9.1444 -0.0000 0.0000 0.0000 -77.7575 5.1523 -3.4841 16.4250 -26.0935 -3.8310 -0.0000 -0.0000 10.7028 6.2300 29.7329 3.0990 -7.1250 0.0000 -0.0000 -27.4498 57.6732 -8.9636 -0.0000 0.0000 0.0000 38.9032 0.3979 -78.8662 -17.9553 28.0998 -4.5281 0.0000 -0.0000 -44.3950 -102.0845 9.2809 36.9898 7.1250 -0.0000 -0.0000 87.6641 -47.9251 -22.5101
14.7558 16.7161 4.1953 -26.7477 -73.9291 -322.1060 0.0000 0.0000 0.0000 4.6829 0.3570 -41.5163 10.2231 17.5334 60.2315 1.1352 4.7145 -22.3415 0.2148 -2.9836 -8.2332 0.0000 0.0000 0.0000 9.8836 0.4761 -23.0917 -3.6910 -11.7374 34.8092 -1.2005 6.1858 -19.5857 -2.0308 8.9299 -25.5763 -0.3370 0.0318 22.1251 1.6058 -0.4163 7.8268 2.0304 -0.4292 -3.7948 -13.7756 -15.7414 -6.5978 16.0053 -22.5757 13.6255 4.7126 -10.4992 8.7665 0.0000 -0.0000 0.0000 -77.7066 4.9727 -2.9740 16.5133 -26.2117 -3.8699 -0.0000 -0.0000 10.6901 6.5653 29.8743 3.2810 -7.1250 0.0000 -0.0000 -27.2301 57.8692 -9.0156 0.0000 -0.0000 0.0000 39.1983 0.0061 -78.7039 -18.0074 28.1666 -4.5527 0.0000 -0.0000 -43.9016 -102.1916 8.5736 34.6060 7.1250 -0.0000 -0.0000 89.3386 -48.0250 -25.0171
14.7081 16.7112 4.2848 -26.6762 -73.8235 -322.0130 0.0000 0.0000 0.0000 5.2864 0.2972 -42.0714 9.7627 17.2742 58.6923 0.9972 4.4296 -20.9579 0.6236 -5.0532 -14.0605 0.0000 0.0000 0.0000 9.7239 0.4747 -22.5780 -3.5508 -11.5373 34.1142 -1.1896 5.6516 -19.5184 -2.0210 8.9097 -25.5133 -0.5715 0.1889 22.3225 1.7286 -0.2466 7.6981 2.2588 -0.3445 -4.0384 -13.9838 -15.5989 -6.9488 16.1311 -22.4362 14.1470 4.7746 -10.3966 9.0253 0.0000 -0.0000 0.0000 -77.9338 4.9630 -2.2043 16.6646 -26.4135 -3.9370 -0.0000 -0.0000 10.3689 6.9534 29.8827 3.4772 -7.1250 0.0000 -0.0000 -26.8512 57.9601 -8.9376 0.0000 -0.0000 0.0000 39.2924 -0.9948 -78.1274 -18.0641 28.2392 -4.5795 0.0000 -0.0000 -43.7127 -102.4100 7.7922 31.6391 7.1250 -0.0000 -0.0000 91.9450 -48.0449 -28.7117
14.6622 16.7059 4.3789 -26.6190 -73.6050 -321.8400 0.0000 0.0000 0.0000 5.9203 0.2810 -42.8002 9.3052 17.0002 57.1399 0.8958 3.5633 -19.5079 1.1312 -6.7551 -18.9920 0.0000 0.0000 0.0000 9.6458 0.3920 -22.1399 -3.4093 -11.3299 33.4006 -1.1880 4.9758 -19.5548 -2.2981 9.4611 -27.2486 -0.6429 0.3313 22.3376 1.7718 -0.0731 7.6817 2.3029 -0.2596 -4.0709 -13.3474 -15.5783 -7.6363 15.5619 -22.3826 14.6898 4.4609 -10.3207 9.1704 -0.0000 -0.0000 0.0000 -77.8539 4.6821 -1.4207 16.7640 -26.5456 -3.9813 -0.0000 -0.0000 9.9094 6.7412 29.7213 3.3538 -7.1250 0.0000 -0.0000 -26.9340 57.7719 -8.8434 -0.0000 -0.0000 0.0000 39.7887 -2.0491 -77.6913 -18.2591 28.4877 -4.6722 0.0000 -0.0000 -43.9395 -102.2134 6.9966 29.3690 7.1250 -0.0000 -0.0000 92.8272 -48.1232 -30.3435
14.6132 16.7105 4.4691 -26.9819 -73.3267 -321.3020 0.0000 0.0000 0.0000 6.7583 0.0978 -43.3893 8.8487 16.7093 55.5653 0.9041 1.5323 -18.5777 1.0384 -6.4811 -18.1869 0.0000 0.0000 0.0000 9.7502 0.1069 -21.7137 -3.2646 -11.1116 32.6571 -1.1795 4.7237 -19.5061 -2.4305 9.7104 -28.0438 -0.8153 0.3333 22.3629 2.0077 -0.0880 7.6136 2.6608 -0.2679 -4.1555 -13.6646 -15.3603 -7.9844 15.2716 -22.0352 15.3161 4.4435 -10.1515 9.3920 0.0000 -0.0000 0.0000 -78.2239 4.6139 -1.4052 16.7521 -26.5299 -3.9760 -0.0000 -0.0000 9.7413 6.3376 29.3750 3.1184 -7.1250 0.0000 -0.0000 -27.0622 57.3806 -8.6292 0.0000 -0.0000 0.0000 39.6466 -2.4720 -77.5851 -18.3501 28.6031 -4.7157 0.0000 -0.0000 -43.6287 -102.0177 6.4378 27.7761 7.1250 -0.0000 -0.0000 93.3700 -48.1855 -31.4198
14.5545 16.7108 4.5562 -27.1466 -72.9581 -321.1480 0.0000 0.0000 0.0000 7.4701 -0.1728 -43.7912 8.4016 16.4068 53.9967 0.8878 -0.6469 -17.6026 0.9077 -6.0710 -16.9907 0.0000 0.0000 0.0000 9.8448 -0.2946 -20.9897 -3.1088 -10.8692 31.8400 -1.1776 4.6218 -19.5003 -2.3752 9.6073 -27.7142 -1.0532 0.1527 22.4932 2.1854 -0.3525 7.5070 3.0596 -0.3954 -4.3197 -14.5982 -14.9184 -7.9648 15.6715 -21.4942 15.9490 4.8046 -9.9032 9.6844 -0.0000 0.0000 0.0000 -78.7148 4.8931 -2.2084 16.7646 -26.5465 -3.9816 -0.0000 -0.0000 9.9655 6.1966 28.8840 3.0022 -7.1250 0.0000 -0.0000 -26.8248 56.9170 -8.2388 -0.0000 0.0000 0.0000 39.2921 -2.6042 -77.0515 -18.3031 28.5435 -4.6932 0.0000 -0.0000 -43.3648 -103.4150 6.2640 24.5824 7.1250 -0.0000 -0.0000 100.2622 -47.2013 -39.8331
